# xmcd
# 
# Track frame offsets:
#     150
#     17392
#     31249
#     48014
#     64320
#     79728
#     96225
#     111239
#     127332
#     143033
#     157379
#     168361
#     193325
#     206327
# 
# Disc length: 2919
# 
# Revision: 0
# Processed by: cddbd v1.5.2PL0 Copyright (c) Steve Scherf et al.
# Submitted via: fre:ac v1.0.17
# 
DISCID=c40b650e
DTITLE=Rex Warren - Raide Your Voice
DYEAR=2006
DGENRE=Country
TTITLE0=Something in Me
TTITLE1=Highway Song
TTITLE2=Get Out of My Way
TTITLE3=Toy for Love
TTITLE4=Raise Your Voice
TTITLE5=Just a Guitar
TTITLE6=Ole
TTITLE7=Red White and Blue
TTITLE8=Indigo Blue
TTITLE9=Dogs Keep Barkin'
TTITLE10=Gotta Get to Hreaven
TTITLE11=Strange, Strange World
TTITLE12=Saturday in Santa Fe
TTITLE13=Albuquerque Jewel of New Mexico
EXTD=
EXTT0=
EXTT1=
EXTT2=
EXTT3=
EXTT4=
EXTT5=
EXTT6=
EXTT7=
EXTT8=
EXTT9=
EXTT10=
EXTT11=
EXTT12=
EXTT13=
PLAYORDER=
